<svg width="19" height="16" viewBox="0 0 19 16" fill="none" xmlns="http://www.w3.org/2000/svg">
<path fill-rule="evenodd" clip-rule="evenodd" d="M1.77742 0.852672C0.818277 0.852672 0.0703125 1.65572 0.0703125 2.58981V14.1149C0.0703125 15.0493 0.818277 15.8521 1.77742 15.8521H15.3272C16.2864 15.8521 17.0385 15.0493 17.0385 14.1149V11.07C17.3338 10.9905 17.5943 10.8201 17.7805 10.5848C17.9666 10.3495 18.0684 10.062 18.0703 9.76577V7.16037C18.0684 6.86418 17.9666 6.57666 17.7805 6.34133C17.5943 6.106 17.3338 5.93567 17.0385 5.85611V2.58919C17.0385 1.65479 16.2864 0.852051 15.3272 0.852051L1.77742 0.852672ZM1.77742 1.87558H15.3272C15.676 1.87558 15.9797 2.16686 15.9797 2.58981V5.80953H11.2782C10.5493 5.80953 9.85031 6.08926 9.33492 6.58719C8.81953 7.08511 8.52999 7.76045 8.52999 8.46462C8.52999 9.16879 8.81953 9.84413 9.33492 10.3421C9.85031 10.84 10.5493 11.1197 11.2782 11.1197H15.981V14.1165C15.981 14.5397 15.6776 14.8307 15.3285 14.8307H1.77742C1.42835 14.8307 1.1291 14.5394 1.1291 14.1165V2.59013C1.1291 2.16686 1.42835 1.87558 1.77742 1.87558ZM11.2779 6.83244H16.6715C16.7165 6.83088 16.7615 6.8383 16.8035 6.85426C16.8455 6.87022 16.8836 6.89436 16.9155 6.92519C16.9474 6.95602 16.9724 6.99286 16.9889 7.03343C17.0055 7.074 17.0131 7.11742 17.0115 7.16099V9.76639C17.0131 9.80996 17.0055 9.85338 16.9889 9.89395C16.9724 9.93451 16.9474 9.97136 16.9155 10.0022C16.8836 10.033 16.8455 10.0572 16.8035 10.0731C16.7615 10.0891 16.7165 10.0965 16.6715 10.0949H11.2779C10.8301 10.0949 10.4006 9.92307 10.084 9.61716C9.76731 9.31124 9.58942 8.89632 9.58942 8.46369C9.58942 8.03105 9.76731 7.61614 10.084 7.31022C10.4006 7.0043 10.8301 6.83244 11.2779 6.83244ZM11.3708 7.75256C11.1721 7.75742 10.9834 7.83771 10.8455 7.97605C10.7077 8.11439 10.6318 8.29963 10.6343 8.49164C10.6368 8.68365 10.7175 8.86697 10.8589 9.00189C11.0004 9.13681 11.1911 9.21247 11.3899 9.21247C11.5887 9.21247 11.7794 9.13681 11.9209 9.00189C12.0623 8.86697 12.143 8.68365 12.1455 8.49164C12.148 8.29963 12.0721 8.11439 11.9343 7.97605C11.7964 7.83771 11.6077 7.75742 11.409 7.75256H11.3708Z" fill="#7F8A94"/>
</svg>
