<svg width="15" height="15" viewBox="0 0 15 15" fill="none" xmlns="http://www.w3.org/2000/svg">
<path d="M0.452115 5.25757L5.23406 8.15051L6.41346 13.9864C6.45213 14.1699 6.54007 14.3366 6.66609 14.4655C6.7921 14.5944 6.9505 14.6795 7.1211 14.7101H7.24976C7.39868 14.7123 7.5453 14.6699 7.6736 14.5876C7.80191 14.5052 7.90697 14.3861 7.97732 14.2432L14.8837 1.40587C14.9667 1.24783 15.0067 1.06738 14.9991 0.885543C14.9915 0.703704 14.9366 0.527954 14.8408 0.378754C14.6494 0.0752864 14.2833 -0.064775 13.9402 0.0285995L0.645109 3.53014C0.478979 3.57284 0.328613 3.66929 0.213789 3.80678C0.0989648 3.94428 0.0250611 4.11639 0.00179816 4.30048C-0.0196455 4.69732 0.151904 5.07082 0.452115 5.25924V5.25757ZM0.880989 4.44054L14.1761 0.939001L7.27121 13.778L6.0918 8.05881L8.36483 6.21466L7.85019 5.46766L5.57869 7.31181L0.880989 4.44054Z" fill="#33FF00"/>
</svg>
