<?xml version="1.0" encoding="UTF-8"?><svg id="Layer_1" xmlns="http://www.w3.org/2000/svg" xmlns:xlink="http://www.w3.org/1999/xlink" viewBox="0 0 245.11 137.39"><defs><style>.cls-1{fill:url(#linear-gradient-2);}.cls-2{fill:#41e583;}.cls-3{fill:url(#linear-gradient-3);}.cls-4{fill:url(#linear-gradient);}.cls-5{fill:url(#linear-gradient-4);}</style><linearGradient id="linear-gradient" x1="147.61" y1="76.87" x2="147.61" y2="132.21" gradientUnits="userSpaceOnUse"><stop offset="0" stop-color="#41e583"/><stop offset="1" stop-color="#09b750"/></linearGradient><linearGradient id="linear-gradient-2" x1="217.52" y1="72.78" x2="217.52" y2="127.96" xlink:href="#linear-gradient"/><linearGradient id="linear-gradient-3" x1="31.79" y1="74.03" x2="31.79" y2="137.61" xlink:href="#linear-gradient"/><linearGradient id="linear-gradient-4" x1="84.82" y1="35.54" x2="84.82" y2="153.42" xlink:href="#linear-gradient"/></defs><polygon class="cls-2" points="51.81 31.76 35.82 17.93 43.36 33.29 51.81 31.76"/><polygon class="cls-2" points="51.9 47.69 39.19 47.74 57.18 54.67 51.9 47.69"/><polygon class="cls-2" points="68.95 70.68 74.35 65.85 55.71 62.61 68.95 70.68"/><polygon class="cls-2" points="114.82 65.96 119.46 70.79 130.07 62.5 114.82 65.96"/><polygon class="cls-2" points="128.37 51.62 128.45 38.52 121.85 52.44 128.37 51.62"/><polygon class="cls-2" points="83.68 32.8 74.9 22.27 77.95 33.36 83.68 32.8"/><polygon class="cls-2" points="110.92 21.63 100.16 25.03 104.15 28.95 110.92 21.63"/><polygon class="cls-2" points="68.2 8.88 54.02 20 62.92 23.68 68.2 8.88"/><polygon class="cls-2" points="92.39 13.81 84.54 0 84.89 18.91 92.39 13.81"/><polygon class="cls-2" points="126.74 20.56 112.48 32.13 121.06 35.07 126.74 20.56"/><polygon class="cls-4" points="143.54 113.6 174.31 88.86 174.31 78.15 168.01 78.15 126.25 78.15 119.95 78.15 119.95 88.95 126.25 88.95 151.04 88.95 119.95 113.05 119.95 124.61 126.25 124.61 168.98 124.61 175.28 124.61 175.28 113.6 168.98 113.6 143.54 113.6"/><polygon class="cls-1" points="238.8 88.95 245.11 88.95 245.11 78.15 238.8 78.15 196.24 78.15 189.93 78.15 189.93 124.61 196.24 124.61 238.8 124.61 245.11 124.61 245.11 113.7 238.8 113.7 207.01 113.7 207.01 106.61 236.51 106.61 242.81 106.61 242.81 95.9 236.51 95.9 206.94 95.9 206.94 88.95 238.8 88.95"/><path class="cls-3" d="m59.41,105.49c2.97-2.41,4.17-7.14,4.17-11.03s-.65-7.23-3.15-11.4-7.04-4.54-11.77-4.54H0v46.16h17.15v-25.2l22.27,25.2h21.32l-13.69-15.36s1.67,0,4.17-.21c2.5-.21,5.24-1.21,8.2-3.61Zm-12.56-10.43c0,2.09-1.11,3.34-3.61,3.34h-26.09v-9.45h25.95c1.55,0,2.29.35,3.17,1.53s.58,2.5.58,4.59Z"/><polygon class="cls-5" points="116.22 52.75 105.15 63.51 105.15 59 99.86 52.41 108.82 44.03 107.48 37.2 103.21 41.13 90.7 25.61 84.07 26.88 98.83 45.16 96.04 47.66 88.71 38.53 85.02 43.45 91.64 51.69 81.34 61.22 73.35 53.21 73.35 31.75 67.12 30.85 67.12 46.9 55.53 35.3 51.81 39.75 78.7 67.02 78.7 137.39 85.78 137.39 85.78 65.21 95.42 56.35 98.07 59.63 98.07 70.44 88.39 79.95 88.39 137.39 95.47 137.39 95.47 82.14 98.07 79.54 98.07 137.39 105.15 137.39 105.15 72.39 117.84 60.47 116.22 52.75"/><path class="cls-2" d="m91.84,72.38c2,0,3.63-1.63,3.63-3.63s-1.63-3.63-3.63-3.63-3.63,1.63-3.63,3.63,1.63,3.63,3.63,3.63Z"/></svg>