<svg width="1440" height="809" viewBox="0 0 1440 809" fill="none" xmlns="http://www.w3.org/2000/svg">
<path d="M1673.52 907.419C1672.26 903.929 1668.92 901.708 1665.28 901.708L1637.84 705.624C1637.99 705.624 1638.31 705.466 1638.47 705.466C1642.91 703.879 1645.29 698.803 1643.55 694.361C1642.44 691.347 1639.9 689.284 1636.88 688.808L1647.04 476.226C1647.83 476.226 1648.62 476.067 1649.26 475.75C1653.7 474.164 1656.08 469.087 1654.33 464.645C1652.75 460.203 1647.67 457.823 1643.23 459.568C1641.96 460.044 1641.01 460.679 1640.06 461.631L1520.14 369.142C1521.41 366.921 1521.73 364.382 1520.78 361.844C1519.19 357.402 1514.11 355.022 1509.67 356.767C1508.72 357.085 1507.93 357.561 1507.13 358.195L1431.63 286.964C1433.22 284.743 1433.85 281.729 1432.74 278.873C1431.95 276.811 1430.52 275.225 1428.78 274.273L1480.96 138.157C1482.55 138.474 1484.29 138.474 1486.04 137.839C1490.48 136.253 1492.86 131.176 1491.11 126.734C1489.69 122.927 1486.04 120.706 1482.23 121.023L1458.91 14.2561C1463.36 12.6696 1465.73 7.59305 1463.99 3.15103C1462.4 -1.29099 1457.33 -3.67064 1452.89 -1.92556C1450.51 -0.973701 1448.76 0.771378 1447.81 2.99239L1316.63 -30.3227C1316.79 -31.5919 1316.63 -33.0197 1316.16 -34.2888C1314.57 -38.7309 1309.5 -41.1105 1305.06 -39.3654C1300.61 -37.779 1298.23 -32.7024 1299.98 -28.2604C1299.98 -28.1017 1300.14 -27.9431 1300.14 -27.7845L1064.59 114.519L1063.96 113.884L1063.48 115.153L1059.67 117.533L1062.69 117.216L1004 268.244C1002.41 267.768 1000.67 267.927 998.923 268.562C995.433 269.831 993.371 273.004 993.212 276.494L865.366 290.613C865.366 290.296 865.208 289.979 865.049 289.661C863.463 285.219 858.387 282.84 853.946 284.585C849.822 286.012 847.601 290.296 848.394 294.421L506.573 223.507C506.731 222.238 506.573 221.127 506.097 219.858C504.511 215.416 499.435 213.036 494.994 214.781C490.552 216.368 488.173 221.445 489.918 225.887C490.552 227.632 491.663 229.059 493.09 230.011L357.948 485.745C356.045 485.11 353.983 484.951 351.921 485.745C350.017 486.379 348.59 487.648 347.638 489.235L236.764 437.358C237.398 435.613 237.398 433.551 236.605 431.806C235.019 427.364 229.943 424.984 225.502 426.729C222.33 427.84 220.268 430.695 219.95 433.71H108.442C108.284 433.075 108.283 432.44 107.966 431.806C106.38 427.364 101.304 424.984 96.863 426.729C92.4217 428.316 90.0424 433.392 91.7872 437.834C91.9459 438.152 92.1045 438.469 92.2631 438.786L-72.6994 552.851C-74.9201 550.313 -78.7269 549.202 -82.0579 550.471C-86.4992 552.058 -88.8785 557.134 -87.1337 561.576C-86.0233 564.432 -83.6441 566.494 -80.789 567.129L-89.0371 681.828C-89.9888 681.828 -90.9405 681.987 -91.8922 682.304C-96.0163 683.89 -98.2369 688.174 -97.2852 692.298L-213.711 723.868C-213.711 723.71 -213.869 723.551 -213.869 723.393C-215.455 718.951 -220.531 716.571 -224.973 718.316C-229.414 719.902 -231.793 724.979 -230.048 729.421C-228.462 733.863 -223.386 736.243 -218.945 734.498C-218.628 734.339 -218.469 734.339 -218.152 734.18L-188.808 791.292C-191.98 793.513 -193.408 797.638 -191.98 801.445C-190.394 805.887 -185.318 808.267 -180.877 806.522C-178.022 805.411 -175.96 803.032 -175.484 800.335L-29.3968 813.344C-29.3968 814.295 -29.2381 815.089 -28.9209 816.04C-27.3347 820.482 -22.259 822.862 -17.8177 821.117C-14.4867 819.848 -12.4247 816.834 -12.1074 813.661L12.3197 809.853L148.255 789.071C150 793.354 154.917 795.575 159.358 793.989C163.8 792.403 166.179 787.326 164.434 782.884C163.958 781.615 163.165 780.504 162.214 779.552L245.329 669.454C247.391 670.564 250.088 670.882 252.467 669.93L289.584 740.526L459.939 651.844C462.16 655.017 466.284 656.445 470.091 655.017C471.994 654.224 473.58 652.955 474.532 651.21L575.572 693.726C575.096 695.471 575.096 697.216 575.73 698.961C577.316 703.403 582.392 705.783 586.833 704.038C588.895 703.245 590.482 701.817 591.433 699.913L759.092 762.577C758.775 764.164 758.775 765.909 759.41 767.495C760.996 771.937 766.072 774.317 770.513 772.572C774.954 770.986 777.333 765.909 775.589 761.467C774.954 759.722 773.844 758.294 772.258 757.342L825.87 651.527C827.774 652.162 829.836 652.162 831.739 651.527C835.705 650.099 837.926 646.133 837.291 642.167L1110.27 564.432L1109.96 563.321C1111.07 566.177 1113.29 568.081 1115.98 568.715L1103.93 679.607C1102.98 679.607 1102.02 679.766 1101.07 680.083C1096.63 681.669 1094.25 686.746 1096 691.188C1097.58 695.63 1102.66 698.01 1107.1 696.265C1109.8 695.313 1111.54 693.092 1112.33 690.712L1349.94 731.166C1349.94 732.118 1350.1 733.228 1350.42 734.18C1351.69 737.512 1354.7 739.574 1358.03 739.891L1362.32 841.741C1362 841.899 1361.68 841.899 1361.21 842.058C1356.76 843.644 1354.39 848.721 1356.13 853.163C1357.72 857.605 1362.79 859.985 1367.23 858.24C1369.61 857.288 1371.36 855.543 1372.31 853.322L1656.55 909.64C1656.55 910.751 1656.55 912.02 1657.03 913.13C1658.61 917.572 1663.69 919.952 1668.13 918.207C1672.89 916.938 1675.11 911.861 1673.52 907.419ZM1663.06 902.025C1662.9 902.025 1662.58 902.184 1662.42 902.184C1660.83 902.818 1659.57 903.77 1658.61 905.039L1467.48 793.513L1628.64 702.452C1630.22 704.673 1632.92 705.942 1635.61 705.942L1663.06 902.025ZM1366.6 734.815C1367.07 733.863 1367.23 732.753 1367.39 731.642L1627.05 699.437C1627.05 699.755 1627.21 699.913 1627.37 700.231C1627.37 700.389 1627.37 700.389 1627.52 700.548L1465.26 792.244L1366.6 734.815ZM1108.37 680.717L1184.82 483.524C1186.41 483.999 1188.15 483.841 1189.9 483.206C1190.22 483.048 1190.53 482.889 1190.85 482.889L1244.3 562.687L1109.96 681.828C1109.48 681.352 1108.84 681.035 1108.37 680.717ZM-146.615 757.66L-93.9542 697.534C-91.7336 698.961 -88.8784 699.437 -86.1819 698.485L-26.383 806.68C-27.0175 807.315 -27.4934 807.95 -27.9692 808.584L-146.615 757.66ZM187.592 465.438L25.9608 593.622C25.485 593.305 25.1678 592.829 24.6919 592.512L97.0216 442.752C98.7664 443.387 100.828 443.387 102.732 442.594C104.953 441.8 106.539 440.214 107.49 438.31L187.592 465.438ZM1311.08 -23.1838C1312.03 -23.5011 1312.99 -24.1357 1313.62 -24.6116L1382.78 39.0045L1266.83 92.7846L1306.32 -22.7079C1307.91 -22.5492 1309.5 -22.7079 1311.08 -23.1838ZM1358.03 722.758L1311.08 515.57C1311.88 515.252 1312.51 514.935 1313.14 514.459L1436.23 644.229L1363.74 724.503C1362.32 723.234 1360.25 722.599 1358.03 722.758ZM826.346 635.663C825.87 635.821 825.553 635.98 825.077 636.297L815.402 623.13L852.042 510.969L829.677 635.187C828.567 635.028 827.457 635.187 826.346 635.663ZM768.292 756.073L748.624 540.477C748.941 540.318 749.417 540.318 749.734 540.159C750.21 540.001 750.527 539.842 751.003 539.525L813.023 623.289L769.72 756.073C769.085 756.232 768.768 756.232 768.292 756.073ZM584.137 687.539L567.006 546.664C567.324 546.664 567.641 546.505 567.799 546.346C568.434 546.029 569.068 545.712 569.703 545.395L646.791 631.221L589.371 689.126C587.944 688.174 586.04 687.539 584.137 687.539ZM323.845 545.236L351.127 501.609C353.189 502.561 355.41 502.719 357.631 501.926C358.107 501.768 358.424 501.609 358.741 501.45L460.732 641.374C460.574 641.532 460.574 641.691 460.415 641.691L323.845 545.236ZM249.612 653.272L234.702 542.698L226.93 485.269C227.247 485.269 227.406 485.11 227.723 485.11C228.992 484.634 230.261 483.841 231.054 482.889L320.673 546.029L253.102 654.224C252.15 653.589 250.881 653.272 249.612 653.272ZM148.414 782.884L-2.74899 723.71L19.4575 608.376C20.5678 608.376 21.8368 608.217 22.9471 607.9C23.423 607.741 23.7402 607.583 24.0574 607.424L149.683 780.663C149.048 781.297 148.572 782.091 148.414 782.884ZM-23.5279 804.935C-23.8451 805.094 -24.321 805.253 -24.6382 805.411L-84.2785 697.534C-83.4854 696.899 -82.6924 696.106 -82.0579 695.313L-5.28687 725.296L-20.5142 804.459C-21.4659 804.301 -22.5762 804.459 -23.5279 804.935ZM17.2369 608.059L-4.811 723.075L-80.9476 693.25C-80.3131 691.505 -80.3131 689.443 -80.9476 687.38C-81.1062 687.063 -81.1062 686.746 -81.2648 686.587L14.2231 606.314C15.0162 606.948 15.9679 607.583 17.2369 608.059ZM28.0229 596.795C28.0229 596.636 27.8643 596.478 27.8643 596.319L94.0079 556.658L218.047 482.254C218.999 483.524 220.426 484.475 221.854 484.951L186.323 643.753L28.4987 600.92C28.6573 599.651 28.4987 598.223 28.0229 596.795ZM232.481 480.985C232.799 480.351 232.957 479.875 233.274 479.24L346.21 493.835C346.21 494.787 346.369 495.898 346.686 496.85C347.162 498.277 348.114 499.547 349.383 500.498L322.259 544.125L232.481 480.985ZM852.36 299.973L779.713 453.699L721.817 423.556C722.61 421.653 722.61 419.59 721.817 417.528C721.659 416.893 721.341 416.259 720.866 415.783L851.249 299.338C851.725 299.497 852.042 299.814 852.36 299.973ZM854.898 451.16L854.58 486.696C853.946 486.855 853.47 486.855 852.836 487.172C851.249 487.807 849.98 488.759 849.029 490.028L781.616 454.968L854.263 301.242C854.739 301.401 855.215 301.559 855.691 301.559L854.898 451.16ZM1475.09 132.604C1475.73 134.349 1476.84 135.777 1478.27 136.729L1412.12 266.182L1264.61 103.572C1265.4 102.621 1266.04 101.51 1266.35 100.241L1474.46 129.59C1474.62 130.542 1474.78 131.494 1475.09 132.604ZM1504.91 367.714C1505.39 368.824 1506.02 369.776 1506.66 370.569L1433.38 459.251C1432.27 458.458 1430.84 457.982 1429.41 457.982L1427.67 368.19L1504.44 365.969C1504.44 366.603 1504.6 367.079 1504.91 367.714ZM1481.12 684.683C1480.33 685.001 1479.69 685.318 1479.06 685.794L1439.56 644.071L1484.29 594.415C1485.4 595.209 1486.51 595.685 1487.94 595.843L1483.5 684.049C1482.71 684.208 1481.91 684.366 1481.12 684.683ZM1187.04 466.39L1181.65 362.003C1181.81 362.003 1181.81 362.003 1181.97 361.844C1182.6 361.685 1183.08 361.368 1183.71 361.051L1247.48 436.724L1193.71 469.563C1191.96 467.659 1189.58 466.549 1187.04 466.39ZM464.222 638.994C463.587 639.153 463.112 639.47 462.477 639.787L360.644 500.022C361.596 499.071 362.389 497.96 362.865 496.691L500.545 525.881L468.029 638.518C466.76 638.36 465.491 638.518 464.222 638.994ZM543.531 384.689C544.007 384.689 544.324 384.847 544.8 384.847L555.427 470.673L562.724 530.006C562.406 530.006 562.248 530.165 561.93 530.323C559.393 531.275 557.648 533.179 556.696 535.559L503.4 524.295L543.531 384.689ZM778.761 455.761L746.72 523.502C745.769 523.502 744.658 523.66 743.707 523.978C743.072 524.136 742.596 524.454 742.12 524.771L717.059 428.474C718.645 427.84 719.914 426.729 720.866 425.46L778.761 455.761ZM714.838 429.109L740.217 526.357C739.582 526.992 739.107 527.785 738.789 528.578L659.163 465.28L707.859 426.729C709.604 428.474 712.3 429.426 714.838 429.109ZM738.155 530.799C738.155 531.275 737.996 531.91 738.155 532.386L573.51 536.828C573.351 536.352 573.351 535.717 573.034 535.241C572.875 534.765 572.558 534.29 572.399 533.814L657.418 466.707L738.155 530.799ZM570.972 532.068C569.386 530.482 567.165 529.689 564.944 529.689L557.489 469.246L547.02 384.53C547.338 384.53 547.496 384.371 547.814 384.213C548.924 383.737 550.034 383.102 550.827 382.309L655.356 465.28L570.972 532.068ZM754.492 528.42C753.382 526.04 751.32 524.454 749.1 523.819L780.823 456.871L848.077 491.932C847.442 493.359 847.284 494.787 847.443 496.374L754.492 528.42ZM1424.02 290.296L1425.45 365.969L1369.45 367.555C1369.3 367.079 1369.3 366.445 1368.98 365.969C1368.5 364.7 1367.71 363.589 1366.76 362.637L1420.53 289.185C1421.8 289.82 1422.75 290.137 1424.02 290.296ZM1425.76 458.617C1425.29 458.775 1424.81 458.934 1424.49 459.251L1366.76 375.487C1368.34 374.06 1369.3 371.997 1369.61 369.935L1425.6 368.348L1427.35 458.299C1426.71 458.299 1426.24 458.458 1425.76 458.617ZM1422.59 460.52C1420.85 462.265 1419.89 464.804 1420.05 467.342L1377.7 395.318L1422.59 460.52ZM1179.59 345.186L1172.29 223.19C1172.77 223.031 1173.24 223.031 1173.72 222.872C1174.83 222.396 1175.94 221.762 1176.73 220.969L1210.36 248.255L1180.38 345.345C1180.22 345.345 1179.91 345.186 1179.59 345.186ZM1187.04 350.898C1186.25 348.677 1184.51 346.932 1182.44 345.98L1212.1 249.842L1353.43 364.382C1352.96 365.175 1352.48 366.127 1352.32 367.079L1187.68 353.436C1187.52 352.643 1187.36 351.691 1187.04 350.898ZM1355.02 362.637L1213.06 247.462L1256.52 106.269C1257.63 106.428 1258.74 106.428 1260.01 106.269L1356.76 361.368C1356.13 361.685 1355.5 362.161 1355.02 362.637ZM1253.82 105.317C1253.98 105.476 1254.3 105.476 1254.46 105.635L1211.15 246.034L1178.16 219.382C1179.43 217.161 1179.91 214.464 1178.95 211.926C1178.48 210.657 1177.68 209.546 1176.89 208.753L1198.46 179.88L1253.82 105.317ZM1170.23 223.348L1177.37 345.345C1176.89 345.504 1176.42 345.504 1175.94 345.662C1173.88 346.456 1172.29 347.883 1171.34 349.787L1126.29 329.957L1168.64 223.031C1169.12 223.348 1169.6 223.348 1170.23 223.348ZM1170.55 352.008C1170.23 353.595 1170.23 355.34 1170.86 356.926C1171.18 357.878 1171.66 358.671 1172.29 359.306L1076.49 459.092C1076.17 458.934 1075.85 458.617 1075.54 458.458L1125.5 332.178L1170.55 352.008ZM1079.5 463.059C1079.18 462.107 1078.71 461.313 1078.07 460.679L1174.2 361.209C1174.67 361.527 1174.99 361.685 1175.46 361.844L1143.58 471.149L1079.98 465.597C1079.98 464.804 1079.82 463.852 1079.5 463.059ZM1185.3 359.782C1186.41 358.671 1187.04 357.243 1187.36 355.816L1352.16 369.459C1352.16 370.252 1352.32 371.204 1352.64 371.997C1352.64 372.156 1352.8 372.314 1352.8 372.473L1249.06 435.772L1185.3 359.782ZM1354.23 374.377C1355.02 375.329 1355.81 375.963 1356.92 376.598L1310.29 498.912C1308.7 498.595 1306.96 498.595 1305.21 499.229C1304.58 499.388 1304.1 499.705 1303.47 500.022L1250.81 437.517L1354.23 374.377ZM1315.52 511.921L1480.8 584.738C1480.17 586.483 1480.17 588.546 1480.96 590.449C1481.28 591.401 1481.91 592.353 1482.55 593.146L1437.98 642.643L1314.89 513.031C1315.21 512.555 1315.37 512.238 1315.52 511.921ZM1481.91 582.676L1316.48 509.858C1316.95 508.113 1316.95 506.21 1316.32 504.465C1315.52 502.402 1314.1 500.816 1312.35 499.864L1358.99 377.55C1360.57 377.867 1362.32 377.867 1364.06 377.232C1364.22 377.232 1364.38 377.074 1364.54 377.074L1484.29 580.613C1483.18 581.089 1482.39 581.883 1481.91 582.676ZM1424.02 474.005C1426.08 475.433 1428.78 475.75 1431.31 474.957L1472.4 556.182L1424.02 474.005ZM1504.44 363.906L1427.67 366.127L1426.24 290.454C1426.87 290.296 1427.35 290.296 1427.98 289.978C1428.94 289.661 1429.73 289.185 1430.52 288.551L1506.02 359.782C1505.07 360.892 1504.6 362.32 1504.44 363.906ZM1416.72 284.743C1417.2 286.012 1417.99 287.123 1418.94 288.075L1368.18 357.243L1412.76 270.148L1418.31 276.335C1416.4 278.398 1415.61 281.729 1416.72 284.743ZM1363.74 360.892C1362.16 360.416 1360.57 360.258 1358.83 360.575L1262.07 106.111L1262.39 105.317C1262.55 105.159 1262.7 105.159 1262.86 105L1411.01 268.244L1363.74 360.892ZM1163.09 218.748C1163.89 220.334 1165.15 221.445 1166.58 222.238L1124.23 329.163L1010.18 279.032C1010.66 277.604 1010.66 276.176 1010.34 274.749L1163.09 218.748ZM1009.39 281.094L1123.44 331.226L1073.47 457.506C1072.2 457.189 1070.78 457.189 1069.51 457.506L1006.06 284.267C1007.33 283.633 1008.6 282.522 1009.39 281.094ZM705.638 423.398C705.797 424.032 706.114 424.508 706.431 424.984L657.26 463.852L552.255 380.564C552.413 380.247 552.731 379.771 552.889 379.295L705.162 419.432C705.004 420.859 705.162 422.129 705.638 423.398ZM541.469 384.054L501.18 523.66L363.341 494.47C363.5 493.201 363.341 491.932 362.865 490.821C362.865 490.663 362.707 490.504 362.548 490.187L538.138 381.674C539.09 382.626 540.2 383.578 541.469 384.054ZM470.249 638.994L502.766 526.357L556.22 537.78C556.062 539.049 556.22 540.159 556.696 541.428C557.013 542.38 557.648 543.332 558.282 544.125L471.836 639.946C471.36 639.47 470.884 639.153 470.249 638.994ZM571.448 543.967C572.558 542.698 573.351 540.953 573.51 539.207L682.956 536.193L738.472 534.607C738.472 534.765 738.472 534.765 738.631 534.924C738.948 535.717 739.424 536.511 739.9 537.304L648.377 629.634L571.448 543.967ZM752.748 538.256C754.81 536.352 755.761 533.338 755.286 530.482L848.077 498.277C848.87 500.34 850.456 501.926 852.36 502.878L813.816 620.75L752.748 538.256ZM864.573 494.47L1010.18 475.274L1063 468.294C1063 468.611 1063.16 468.77 1063.16 469.087C1064.75 473.529 1069.67 475.909 1074.11 474.322L1113.76 553.009C1112.18 553.961 1110.91 555.389 1110.11 556.975L864.415 495.739C864.573 495.105 864.573 494.787 864.573 494.47ZM1115.98 551.899L1076.17 473.053C1078.07 471.784 1079.34 469.88 1079.82 467.818L1142.95 473.37L1120.11 551.899C1118.68 551.582 1117.41 551.582 1115.98 551.899ZM1177.68 362.479C1178.32 362.637 1178.8 362.637 1179.43 362.637L1184.82 466.866C1184.51 466.866 1184.19 467.025 1183.87 467.183C1180.7 468.294 1178.64 471.149 1178.32 474.322L1145.96 471.467L1177.68 362.479ZM1194.97 472.101C1194.97 471.943 1194.82 471.784 1194.82 471.625L1248.9 438.627L1301.88 501.609C1301.25 502.402 1300.61 503.195 1300.3 504.147L1195.61 476.226C1195.61 474.957 1195.45 473.529 1194.97 472.101ZM1437.98 645.816L1477.47 687.38C1475.89 689.284 1475.25 691.822 1475.73 694.361L1366.92 728.152C1366.6 727.359 1366.28 726.724 1365.81 726.089L1437.98 645.816ZM1476.2 696.423C1478.11 700.548 1482.71 702.452 1486.99 701.024C1490 699.913 1492.07 697.216 1492.54 694.202L1620.86 698.01L1371.2 729.104L1476.2 696.423ZM1626.89 695.947L1492.7 691.981C1492.7 691.347 1492.54 690.553 1492.22 689.919C1491.75 688.65 1490.96 687.539 1490 686.587L1535.37 623.606L1627.84 693.092C1627.37 693.885 1627.05 694.837 1626.89 695.947ZM1488.26 685.16C1487.47 684.684 1486.51 684.366 1485.72 684.208L1490.16 596.002C1490.8 596.002 1491.59 595.843 1492.22 595.526C1493.49 595.05 1494.6 594.257 1495.4 593.464L1533.78 622.178L1488.26 685.16ZM1496.67 591.718C1497.93 589.656 1498.09 586.959 1497.3 584.421C1497.14 583.945 1496.98 583.469 1496.67 583.152L1640.37 473.688L1640.53 473.846L1534.89 620.274L1496.67 591.718ZM1638.31 470.673C1638.47 471.149 1638.63 471.625 1638.95 471.943L1495.24 581.407C1494.13 580.296 1492.7 579.503 1491.11 579.027L1503.01 468.135L1637.84 468.77C1637.99 469.404 1638.15 470.039 1638.31 470.673ZM1488.89 578.71C1488.1 578.71 1487.31 578.868 1486.51 579.027L1433.22 473.846C1435.44 472.419 1436.87 470.197 1437.18 467.659L1500.63 467.977L1488.89 578.71ZM1437.34 465.597C1437.18 464.962 1437.18 464.328 1436.87 463.693C1436.39 462.583 1435.91 461.631 1435.12 460.838L1508.4 372.156C1509.2 372.632 1510.15 373.108 1510.94 373.266L1500.95 466.073L1437.34 465.597ZM1421.96 273.638C1421.32 273.955 1420.53 274.273 1420.05 274.59L1413.87 267.768L1474.78 148.627L1427.03 273.162C1425.29 272.845 1423.54 273.004 1421.96 273.638ZM1474.93 127.21L1266.67 98.0199C1266.67 97.068 1266.51 96.2748 1266.19 95.3229L1384.52 40.5909L1476.04 124.672C1475.57 125.307 1475.09 126.258 1474.93 127.21ZM1251.92 104.048L1174.99 207.167C1172.93 205.897 1170.23 205.739 1167.69 206.532C1163.89 207.96 1161.66 211.767 1162.14 215.575L1133.59 186.067L1251.6 103.731C1251.76 103.89 1251.92 103.89 1251.92 104.048ZM1160.71 217.32L1009.71 272.686L1131.84 187.336L1160.71 217.32ZM1003.84 285.061L1067.29 458.299C1066.49 458.617 1065.86 459.092 1065.38 459.727L945.468 362.796L998.129 284.426C999.874 285.219 1001.78 285.536 1003.84 285.061ZM1063.96 461.472C1063.16 462.9 1062.69 464.328 1062.69 466.073L953.717 480.509L921.676 484.793L864.098 492.408C863.463 490.821 862.511 489.552 861.242 488.442L944.199 364.7L1063.96 461.472ZM859.339 487.172C858.546 486.855 857.753 486.696 856.96 486.538L857.118 452.747L858.229 301.401C858.863 301.242 859.498 301.242 860.132 300.925C861.242 300.449 862.353 299.814 863.146 299.021L942.613 363.272L859.339 487.172ZM849.98 297.593L719.597 414.038C717.217 411.975 713.886 411.182 710.873 412.293C709.921 412.61 708.969 413.244 708.335 413.879L640.764 352.008L849.663 296.8C849.505 296.959 849.822 297.276 849.98 297.593ZM706.59 415.465C706.114 416.1 705.797 416.735 705.638 417.369L553.365 377.232C553.524 376.439 553.524 375.805 553.365 375.011L637.908 352.643L706.59 415.465ZM552.889 372.79C551.303 368.983 547.338 366.921 543.372 367.555L501.497 230.804C502.29 230.487 502.925 230.011 503.559 229.535L636.164 350.898L552.889 372.79ZM499.276 231.439L541.152 368.19C537.027 370.093 534.965 374.694 536.552 378.977C536.552 379.136 536.71 379.295 536.869 379.612L361.438 488.283C360.962 487.648 360.327 487.172 359.693 486.696L494.835 230.963C496.263 231.598 497.849 231.756 499.276 231.439ZM346.369 491.456L233.433 476.86C233.433 475.909 233.274 474.798 232.957 473.846C231.847 470.991 229.468 468.928 226.612 468.294L228.674 443.069C229.467 443.069 230.419 442.911 231.212 442.594C233.116 441.959 234.543 440.69 235.495 439.103L346.369 490.98C346.369 491.297 346.369 491.456 346.369 491.456ZM226.454 443.069L224.392 468.294C223.599 468.294 222.647 468.452 221.854 468.77C219.633 469.563 218.047 471.149 217.095 473.053L192.192 464.645L222.33 440.69C223.44 441.959 224.868 442.752 226.454 443.069ZM216.302 475.115C215.985 476.702 216.144 478.288 216.62 479.716C216.62 479.875 216.778 480.033 216.778 480.192L33.8917 589.815L189.972 466.073L216.302 475.115ZM22.6299 591.56C20.8851 590.925 18.823 590.925 16.9196 591.718C14.8576 592.512 13.43 593.781 12.4783 595.526L-10.0454 586.166L93.532 445.132L22.6299 591.56ZM11.5266 597.588C11.0508 599.333 11.0508 601.078 11.6852 602.824C11.8439 603.458 12.1611 603.934 12.4783 604.569L-82.5337 684.525L-11.6316 588.07L11.5266 597.588ZM-12.1074 811.44C-12.2661 810.964 -12.266 810.488 -12.4247 810.171C-13.3764 807.474 -15.597 805.57 -18.2935 804.777L-3.22482 726.089L147.779 785.264C147.779 785.898 147.779 786.533 147.779 787.167L110.187 792.878L-12.1074 811.44ZM153.49 777.807C152.696 778.125 151.903 778.601 151.269 779.076L25.9608 606.155C26.9126 605.362 27.547 604.251 28.0229 603.141L186.006 645.975L156.662 777.331C155.552 777.331 154.441 777.49 153.49 777.807ZM224.075 485.427C224.392 485.427 224.55 485.427 224.868 485.427L232.64 543.649L247.391 653.589C247.074 653.589 246.915 653.748 246.598 653.907C244.219 654.859 242.474 656.604 241.522 658.825L188.544 644.388L224.075 485.427ZM257.702 658.983C257.226 657.555 256.274 656.286 255.164 655.334L322.576 547.14L459.305 643.436C458.829 644.388 458.512 645.499 458.512 646.609L258.019 660.252C258.019 659.935 257.86 659.459 257.702 658.983ZM475.325 644.071C474.849 642.96 474.373 642.008 473.58 641.215L559.868 545.395C561.296 546.346 563.041 546.981 564.786 546.981L581.916 687.856C581.599 687.856 581.282 688.015 581.123 688.174C579.22 688.967 577.634 690.236 576.682 691.981L475.642 649.465C475.96 647.72 475.96 645.816 475.325 644.071ZM592.226 693.25C591.909 692.457 591.433 691.664 590.958 690.871L648.219 632.966L761.313 759.087C760.837 759.563 760.52 760.198 760.203 760.674L592.544 698.01C592.861 696.582 592.861 694.837 592.226 693.25ZM649.805 631.379L741.327 538.89C742.755 540.001 744.5 540.635 746.244 540.635L766.072 756.39C765.754 756.549 765.279 756.549 764.961 756.708C764.327 757.025 763.692 757.342 763.058 757.66L649.805 631.379ZM814.609 625.668L823.333 637.566C820.953 639.946 820.002 643.436 821.271 646.768C821.905 648.513 823.015 649.941 824.602 650.892L773.685 751.314L814.609 625.668ZM831.898 635.504L855.532 503.83C856.642 503.83 857.753 503.671 858.863 503.354C861.56 502.402 863.304 500.34 864.098 497.801L1109.48 559.038C1109.32 560.148 1109.32 561.259 1109.64 562.369L837.132 640.422C836.181 637.884 834.277 636.139 831.898 635.504ZM1122.17 552.692L1145.33 473.529L1178.32 476.385C1178.48 477.019 1178.48 477.495 1178.8 477.971C1179.27 479.24 1179.91 480.192 1180.86 481.144L1123.12 553.009C1122.64 553.009 1122.49 552.851 1122.17 552.692ZM1192.59 481.62C1193.55 480.668 1194.34 479.557 1194.82 478.447L1299.5 506.368C1299.34 507.637 1299.5 509.065 1299.98 510.493C1300.3 511.128 1300.61 511.762 1300.93 512.397L1245.89 561.259L1192.59 481.62ZM1302.52 513.983C1304.26 515.57 1306.64 516.363 1309.02 516.045L1355.97 723.234H1355.81C1355.5 723.393 1355.18 723.393 1355.02 723.551L1247.32 563.004L1302.52 513.983ZM1634.82 688.65C1634.03 688.65 1633.24 688.808 1632.6 689.126C1631.33 689.602 1630.22 690.395 1629.43 691.188L1536.8 621.702L1642.44 475.115C1643.23 475.591 1644.18 475.909 1644.97 476.067L1634.82 688.65ZM1638.95 463.217C1638.31 464.169 1637.99 465.28 1637.84 466.39L1503.17 465.755L1513.16 373.266C1514.11 373.266 1515.07 373.108 1516.02 372.79C1517.29 372.314 1518.24 371.68 1519.19 370.728L1638.95 463.217ZM1480.33 121.34C1479.22 121.658 1478.42 122.292 1477.63 122.927L1386.9 39.4804L1449.08 10.7659C1450.82 13.4629 1454 15.0493 1457.17 14.732L1480.33 121.34ZM1447.65 5.05475C1447.49 6.16526 1447.65 7.43441 1447.97 8.70356L1385 37.894L1315.21 -26.3567C1315.52 -26.9912 1316 -27.4672 1316.16 -28.1017L1447.65 5.05475ZM1301.25 -25.8807C1302.04 -24.9289 1302.99 -24.1357 1304.26 -23.5011L1264.61 92.3087C1262.39 89.6118 1258.58 88.6599 1255.09 89.929C1251.76 91.1982 1249.54 94.3711 1249.38 97.7026L1069.03 114.36L1301.25 -25.8807ZM1249.7 99.7649C1249.86 100.082 1249.86 100.558 1250.01 100.875C1250.17 101.193 1250.33 101.51 1250.49 101.827L1132.16 184.481L1066.81 116.74L1249.7 99.7649ZM1130.26 185.75L1008.44 270.783C1007.81 269.989 1007.01 269.513 1006.22 269.038L1064.91 117.85L1130.26 185.75ZM993.53 278.715C993.53 279.032 993.688 279.349 993.847 279.667C994.323 281.094 995.274 282.205 996.226 283.157L943.723 361.368L864.415 297.276C865.208 296.007 865.684 294.421 865.684 292.834L993.53 278.715ZM844.112 295.848L638.543 350.263L504.987 227.79C505.463 227.156 505.78 226.362 506.097 225.728L844.112 295.848ZM219.792 435.613C219.95 436.248 219.95 436.882 220.268 437.517C220.426 437.993 220.744 438.469 220.902 438.945L189.654 463.693L108.283 436.248C108.283 436.089 108.284 435.93 108.442 435.613H219.792ZM93.3734 440.373C93.532 440.531 93.6907 440.69 93.8493 440.848L-12.2661 585.214L-70.9546 560.783C-70.4788 559.038 -70.4788 557.293 -71.1133 555.548C-71.2719 555.23 -71.4305 554.913 -71.5891 554.596L93.3734 440.373ZM-78.8855 567.129C-78.0924 567.129 -77.1407 566.97 -76.3476 566.653C-74.2856 565.86 -72.858 564.59 -71.9063 562.845L-13.6936 587.118L-84.4371 683.256C-85.2302 682.621 -86.182 682.304 -87.1337 681.987L-78.8855 567.129ZM-97.4438 693.25C-97.1266 694.361 -96.4921 695.154 -95.8576 695.947L-148.995 756.549L-214.187 728.469C-213.869 727.676 -213.869 726.724 -213.869 725.772L-97.2852 694.202L-97.4438 693.25ZM-214.98 730.69L-150.422 758.453L-179.132 791.133C-181.353 789.706 -184.208 789.23 -186.904 790.181L-216.724 732.753C-215.931 732.118 -215.455 731.483 -214.98 730.69ZM-175.167 798.114C-175.167 797.162 -175.325 796.369 -175.642 795.417C-175.96 794.306 -176.594 793.513 -177.229 792.72L-148.043 759.405L-28.7623 810.647C-28.7623 810.805 -28.9209 810.964 -28.9209 811.122L-175.167 798.114ZM160.627 778.442C159.993 778.125 159.358 777.807 158.724 777.649L188.068 646.609L241.047 661.046C240.888 662.315 241.047 663.743 241.522 665.012C241.998 666.281 242.791 667.391 243.743 668.343L160.627 778.442ZM290.694 737.67L254.688 668.978C256.75 667.55 258.177 665.17 258.336 662.632L458.829 648.989C458.988 649.306 458.988 649.782 459.146 650.099L290.694 737.67ZM1118.36 569.032C1119.31 569.032 1120.27 568.874 1121.22 568.556C1125.66 566.97 1128.04 561.893 1126.29 557.451C1125.98 556.341 1125.34 555.548 1124.71 554.754L1182.6 482.73C1182.6 482.73 1182.76 482.73 1182.76 482.889L1106.31 680.083L1118.36 569.032ZM1112.81 688.65C1112.81 687.539 1112.65 686.429 1112.33 685.318C1112.02 684.684 1111.7 684.049 1111.38 683.414L1245.41 564.432L1352.96 724.82C1351.69 725.931 1350.74 727.359 1350.26 729.104L1112.81 688.65ZM1360.41 739.891C1360.89 739.733 1361.36 739.733 1361.68 739.574C1363.27 738.94 1364.54 737.988 1365.49 736.877L1462.88 793.672L1371.52 845.389C1369.93 843.168 1367.39 841.899 1364.85 841.899L1360.41 739.891ZM1372.94 851.418C1373.1 850.149 1372.94 848.721 1372.47 847.452V847.293L1465.1 794.941L1657.35 907.102C1657.19 907.26 1657.19 907.419 1657.19 907.736L1372.94 851.418Z" fill="#33FF00"/>
</svg>
