<svg version="1.2" xmlns="http://www.w3.org/2000/svg" viewBox="0 0 24 24" width="24" height="24"><style>.a{fill:none;stroke:#fff;stroke-linecap:round;stroke-linejoin:round;stroke-width:1.5}</style><path class="a" d="m22 6.5h-6"/><path class="a" d="m6 6.5h-4"/><path class="a" d="m10 10c1.9 0 3.5-1.6 3.5-3.5 0-1.9-1.6-3.5-3.5-3.5-1.9 0-3.5 1.6-3.5 3.5 0 1.9 1.6 3.5 3.5 3.5z"/><path class="a" d="m22 17.5h-4"/><path class="a" d="m8 17.5h-6"/><path class="a" d="m14 21c1.9 0 3.5-1.6 3.5-3.5 0-1.9-1.6-3.5-3.5-3.5-1.9 0-3.5 1.6-3.5 3.5 0 1.9 1.6 3.5 3.5 3.5z"/></svg>