<svg width="26" height="26" viewBox="0 0 26 26" fill="none" xmlns="http://www.w3.org/2000/svg">
<path d="M2.16602 2.1665H4.05102C5.22102 2.1665 6.14185 3.174 6.04435 4.33317L5.14518 15.1232C4.99352 16.889 6.39101 18.4057 8.16768 18.4057H19.7052C21.2652 18.4057 22.6302 17.1273 22.7493 15.5782L23.3343 7.45318C23.4643 5.65484 22.0993 4.19233 20.2902 4.19233H6.30436" stroke="#33FF00" stroke-width="1.5" stroke-miterlimit="10" stroke-linecap="round" stroke-linejoin="round"/>
<path d="M17.6042 23.8333C18.3521 23.8333 18.9583 23.2271 18.9583 22.4792C18.9583 21.7313 18.3521 21.125 17.6042 21.125C16.8563 21.125 16.25 21.7313 16.25 22.4792C16.25 23.2271 16.8563 23.8333 17.6042 23.8333Z" stroke="#33FF00" stroke-width="1.5" stroke-miterlimit="10" stroke-linecap="round" stroke-linejoin="round"/>
<path d="M8.93815 23.8333C9.68604 23.8333 10.2923 23.2271 10.2923 22.4792C10.2923 21.7313 9.68604 21.125 8.93815 21.125C8.19027 21.125 7.58398 21.7313 7.58398 22.4792C7.58398 23.2271 8.19027 23.8333 8.93815 23.8333Z" stroke="#33FF00" stroke-width="1.5" stroke-miterlimit="10" stroke-linecap="round" stroke-linejoin="round"/>
<path d="M9.75 8.6665H22.75" stroke="#33FF00" stroke-width="1.5" stroke-miterlimit="10" stroke-linecap="round" stroke-linejoin="round"/>
</svg>
