<svg width="26" height="26" viewBox="0 0 26 26" fill="none" xmlns="http://www.w3.org/2000/svg">
<path d="M22.8365 9.29487V16.7048C22.8365 17.9182 22.1865 19.0449 21.1357 19.6624L14.7007 23.3782C13.6498 23.9849 12.3498 23.9849 11.2882 23.3782L4.85318 19.6624C3.80234 19.0557 3.15234 17.929 3.15234 16.7048V9.29487C3.15234 8.08154 3.80234 6.95483 4.85318 6.33733L11.2882 2.6215C12.339 2.01484 13.639 2.01484 14.7007 2.6215L21.1357 6.33733C22.1865 6.95483 22.8365 8.07071 22.8365 9.29487Z" stroke="#33FF00" stroke-width="1.5" stroke-linecap="round" stroke-linejoin="round"/>
<path d="M12.9988 11.9165C14.3928 11.9165 15.5229 10.7863 15.5229 9.39228C15.5229 7.99822 14.3928 6.86816 12.9988 6.86816C11.6047 6.86816 10.4746 7.99822 10.4746 9.39228C10.4746 10.7863 11.6047 11.9165 12.9988 11.9165Z" stroke="#33FF00" stroke-width="1.5" stroke-linecap="round" stroke-linejoin="round"/>
<path d="M17.3327 18.0482C17.3327 16.0982 15.3935 14.5166 12.9993 14.5166C10.6052 14.5166 8.66602 16.0982 8.66602 18.0482" stroke="#33FF00" stroke-width="1.5" stroke-linecap="round" stroke-linejoin="round"/>
</svg>
